<svg version="1.1" viewBox="0.0 0.0 960.0 540.0" fill="none" stroke="none" stroke-linecap="square" stroke-miterlimit="10" xmlns:xlink="http://www.w3.org/1999/xlink" xmlns="http://www.w3.org/2000/svg"><clipPath id="p.0"><path d="m0 0l960.0 0l0 540.0l-960.0 0l0 -540.0z" clip-rule="nonzero"/></clipPath><g clip-path="url(#p.0)"><path fill="#ffffff" d="m0 0l960.0 0l0 540.0l-960.0 0z" fill-rule="evenodd"/><path fill="#000000" fill-opacity="0.0" d="m272.382 374.039l2.471283 -306.5929" fill-rule="evenodd"/><path stroke="#000000" stroke-width="2.0" stroke-linejoin="round" stroke-linecap="butt" d="m272.38196 374.039l2.3745728 -294.5933" fill-rule="evenodd"/><path fill="#000000" stroke="#000000" stroke-width="2.0" stroke-linecap="butt" d="m278.0599 79.47233l-3.230194 -9.102524l-3.3765259 9.049271z" fill-rule="evenodd"/><path fill="#000000" fill-opacity="0.0" d="m273.58817 376.26788l359.874 -0.47244263" fill-rule="evenodd"/><path stroke="#000000" stroke-width="2.0" stroke-linejoin="round" stroke-linecap="butt" d="m273.58817 376.26788l347.874 -0.45669556" fill-rule="evenodd"/><path fill="#000000" stroke="#000000" stroke-width="2.0" stroke-linecap="butt" d="m621.46655 379.11465l9.071838 -3.3153687l-9.080505 -3.291565z" fill-rule="evenodd"/><path fill="#000000" fill-opacity="0.0" d="m279.33597 261.44882l348.37796 0" fill-rule="evenodd"/><path stroke="#ff0000" stroke-width="2.0" stroke-linejoin="round" stroke-linecap="butt" stroke-dasharray="8.0,6.0" d="m279.33597 261.44882l348.37796 0" fill-rule="evenodd"/><path fill="#000000" fill-opacity="0.0" d="m272.3701 337.44882c77.95276 0 116.92914 -37.448822 155.90552 -74.897644c38.97638 -37.448822 77.95273 -74.89763 155.90549 -74.89763" fill-rule="evenodd"/><path stroke="#595959" stroke-width="1.0" stroke-linejoin="round" stroke-linecap="butt" d="m272.3701 337.44882c77.95276 0 116.92914 -37.448822 155.90552 -74.897644c38.97638 -37.448822 77.95273 -74.89763 155.90549 -74.89763" fill-rule="evenodd"/><path fill="#000000" fill-opacity="0.0" d="m606.82153 262.5433l0 -34.83464" fill-rule="evenodd"/><path stroke="#595959" stroke-width="2.0" stroke-linejoin="round" stroke-linecap="butt" d="m606.82153 262.5433l0 -22.83464" fill-rule="evenodd"/><path fill="#595959" stroke="#595959" stroke-width="2.0" stroke-linecap="butt" d="m610.125 239.70866l-3.3034668 -9.076202l-3.3034668 9.076202z" fill-rule="evenodd"/><path fill="#000000" fill-opacity="0.0" d="m577.3858 199.73491l382.6142 0l0 42.015747l-382.6142 0z" fill-rule="evenodd"/><path fill="#000000" d="m588.5108 226.6549l0 -13.0625l4.890625 0q1.65625 0 2.84375 0.53125q1.203125 0.53125 1.84375 1.53125q0.640625 1.0 0.640625 2.421875q0 1.375 -0.640625 2.375q-0.640625 1.0 -1.84375 1.546875q-1.1875 0.53125 -2.84375 0.53125l-4.125 0l0.609375 -0.65625l0 4.78125l-1.375 0zm1.375 -4.671875l-0.609375 -0.65625l4.09375 0q1.953125 0 2.96875 -0.84375q1.015625 -0.859375 1.015625 -2.40625q0 -1.578125 -1.015625 -2.421875q-1.015625 -0.859375 -2.96875 -0.859375l-4.09375 0l0.609375 -0.65625l0 7.84375zm17.599548 4.671875l0 -2.171875l-0.0625 -0.34375l0 -3.625q0 -1.25 -0.703125 -1.921875q-0.6875 -0.671875 -2.0625 -0.671875q-0.953125 0 -1.8125 0.328125q-0.859375 0.3125 -1.453125 0.828125l-0.609375 -0.984375q0.75 -0.640625 1.796875 -0.984375q1.046875 -0.34375 2.203125 -0.34375q1.90625 0 2.9375 0.953125q1.03125 0.9375 1.03125 2.859375l0 6.078125l-1.265625 0zm-3.375 0.09375q-1.109375 0 -1.921875 -0.359375q-0.796875 -0.375 -1.234375 -1.015625q-0.421875 -0.640625 -0.421875 -1.484375q0 -0.765625 0.359375 -1.390625q0.359375 -0.625 1.1875 -1.0q0.84375 -0.390625 2.234375 -0.390625l3.375 0l0 1.0l-3.34375 0q-1.40625 0 -1.96875 0.5q-0.546875 0.5 -0.546875 1.25q0 0.84375 0.65625 1.34375q0.65625 0.5 1.828125 0.5q1.125 0 1.9375 -0.515625q0.8125 -0.515625 1.171875 -1.484375l0.3125 0.921875q-0.375 0.96875 -1.3125 1.546875q-0.921875 0.578125 -2.3125 0.578125zm10.882202 0q-1.21875 0 -2.3125 -0.34375q-1.078125 -0.34375 -1.6875 -0.875l0.59375 -1.046875q0.59375 0.453125 1.53125 0.78125q0.9375 0.328125 1.96875 0.328125q1.390625 0 2.0 -0.4375q0.625 -0.4375 0.625 -1.171875q0 -0.53125 -0.34375 -0.84375q-0.34375 -0.3125 -0.90625 -0.46875q-0.5625 -0.15625 -1.25 -0.265625q-0.6875 -0.109375 -1.375 -0.265625q-0.671875 -0.15625 -1.234375 -0.4375q-0.5625 -0.296875 -0.90625 -0.796875q-0.34375 -0.5 -0.34375 -1.34375q0 -0.796875 0.4375 -1.421875q0.453125 -0.640625 1.3125 -1.0q0.875 -0.375 2.125 -0.375q0.953125 0 1.90625 0.25q0.953125 0.25 1.5625 0.671875l-0.578125 1.0625q-0.65625 -0.453125 -1.40625 -0.640625q-0.734375 -0.203125 -1.484375 -0.203125q-1.328125 0 -1.953125 0.46875q-0.625 0.453125 -0.625 1.15625q0 0.5625 0.34375 0.875q0.34375 0.3125 0.90625 0.5q0.578125 0.171875 1.25 0.28125q0.6875 0.109375 1.375 0.28125q0.6875 0.15625 1.25 0.421875q0.5625 0.265625 0.90625 0.765625q0.359375 0.5 0.359375 1.296875q0 0.859375 -0.484375 1.484375q-0.46875 0.625 -1.375 0.96875q-0.90625 0.34375 -2.1875 0.34375zm9.104248 0q-1.21875 0 -2.3125 -0.34375q-1.078125 -0.34375 -1.6875 -0.875l0.59375 -1.046875q0.59375 0.453125 1.53125 0.78125q0.9375 0.328125 1.96875 0.328125q1.390625 0 2.0 -0.4375q0.625 -0.4375 0.625 -1.171875q0 -0.53125 -0.34375 -0.84375q-0.34375 -0.3125 -0.90625 -0.46875q-0.5625 -0.15625 -1.25 -0.265625q-0.6875 -0.109375 -1.375 -0.265625q-0.671875 -0.15625 -1.234375 -0.4375q-0.5625 -0.296875 -0.90625 -0.796875q-0.34375 -0.5 -0.34375 -1.34375q0 -0.796875 0.4375 -1.421875q0.453125 -0.640625 1.3125 -1.0q0.875 -0.375 2.125 -0.375q0.953125 0 1.90625 0.25q0.953125 0.25 1.5625 0.671875l-0.578125 1.0625q-0.65625 -0.453125 -1.40625 -0.640625q-0.734375 -0.203125 -1.484375 -0.203125q-1.328125 0 -1.953125 0.46875q-0.625 0.453125 -0.625 1.15625q0 0.5625 0.34375 0.875q0.34375 0.3125 0.90625 0.5q0.578125 0.171875 1.25 0.28125q0.6875 0.109375 1.375 0.28125q0.6875 0.15625 1.25 0.421875q0.5625 0.265625 0.90625 0.765625q0.359375 0.5 0.359375 1.296875q0 0.859375 -0.484375 1.484375q-0.46875 0.625 -1.375 0.96875q-0.90625 0.34375 -2.1875 0.34375z" fill-rule="nonzero"/><path fill="#000000" fill-opacity="0.0" d="m537.7087 281.14697l62.141724 0l0 42.015747l-62.141724 0z" fill-rule="evenodd"/><path fill="#000000" d="m550.06805 301.3326l6.90625 0l0 1.1875l-6.90625 0l0 -1.1875zm0.140625 6.734375l-1.375 0l0 -13.0625l8.953125 0l0 1.203125l-7.578125 0l0 11.859375zm15.901733 0l0 -2.171875l-0.0625 -0.34375l0 -3.625q0 -1.25 -0.703125 -1.921875q-0.6875 -0.671875 -2.0625 -0.671875q-0.953125 0 -1.8125 0.328125q-0.859375 0.3125 -1.453125 0.828125l-0.609375 -0.984375q0.75 -0.640625 1.796875 -0.984375q1.046875 -0.34375 2.203125 -0.34375q1.90625 0 2.9375 0.953125q1.03125 0.9375 1.03125 2.859375l0 6.078125l-1.265625 0zm-3.375 0.09375q-1.109375 0 -1.921875 -0.359375q-0.796875 -0.375 -1.234375 -1.015625q-0.421875 -0.640625 -0.421875 -1.484375q0 -0.765625 0.359375 -1.390625q0.359375 -0.625 1.1875 -1.0q0.84375 -0.390625 2.234375 -0.390625l3.375 0l0 1.0l-3.34375 0q-1.40625 0 -1.96875 0.5q-0.546875 0.5 -0.546875 1.25q0 0.84375 0.65625 1.34375q0.65625 0.5 1.828125 0.5q1.125 0 1.9375 -0.515625q0.8125 -0.515625 1.171875 -1.484375l0.3125 0.921875q-0.375 0.96875 -1.3125 1.546875q-0.921875 0.578125 -2.3125 0.578125zm8.241577 -0.09375l0 -9.796875l1.328125 0l0 9.796875l-1.328125 0zm0.671875 -11.953125q-0.40625 0 -0.6875 -0.28125q-0.28125 -0.28125 -0.28125 -0.671875q0 -0.390625 0.28125 -0.65625q0.28125 -0.28125 0.6875 -0.28125q0.40625 0 0.6875 0.265625q0.28125 0.25 0.28125 0.65625q0 0.40625 -0.265625 0.6875q-0.265625 0.28125 -0.703125 0.28125zm4.3466797 11.953125l0 -13.84375l1.328125 0l0 13.84375l-1.328125 0z" fill-rule="nonzero"/><path fill="#000000" fill-opacity="0.0" d="m566.82153 259.70865l0 34.834656" fill-rule="evenodd"/><path stroke="#595959" stroke-width="2.0" stroke-linejoin="round" stroke-linecap="butt" d="m566.82153 259.70865l0 22.834656" fill-rule="evenodd"/><path fill="#595959" stroke="#595959" stroke-width="2.0" stroke-linecap="butt" d="m563.51807 282.5433l3.3034668 9.076202l3.3034668 -9.076202z" fill-rule="evenodd"/><path fill="#000000" fill-opacity="0.0" d="m225.9029 240.44095l62.141724 0l0 42.015747l-62.141724 0z" fill-rule="evenodd"/><path fill="#000000" d="m241.07477 267.4703q-1.5 0 -2.6875 -0.78125q-1.171875 -0.796875 -1.84375 -2.28125q-0.671875 -1.484375 -0.671875 -3.578125q0 -2.09375 0.671875 -3.5625q0.671875 -1.4843597 1.84375 -2.2812347q1.1875 -0.796875 2.6875 -0.796875q1.515625 0 2.6875 0.796875q1.171875 0.796875 1.859375 2.2812347q0.6875 1.46875 0.6875 3.5625q0 2.09375 -0.6875 3.578125q-0.6875 1.484375 -1.859375 2.28125q-1.171875 0.78125 -2.6875 0.78125zm0 -1.234375q1.15625 0 2.015625 -0.625q0.859375 -0.625 1.34375 -1.828125q0.484375 -1.203125 0.484375 -2.953125q0 -1.75 -0.484375 -2.953125q-0.484375 -1.203125 -1.34375 -1.828125q-0.859375 -0.62498474 -2.015625 -0.62498474q-1.109375 0 -2.0 0.62498474q-0.875 0.625 -1.359375 1.828125q-0.484375 1.203125 -0.484375 2.953125q0 1.75 0.484375 2.953125q0.484375 1.203125 1.359375 1.828125q0.890625 0.625 2.0 0.625zm7.957596 1.21875q-0.421875 0 -0.71875 -0.296875q-0.28125 -0.296875 -0.28125 -0.734375q0 -0.4375 0.28125 -0.71875q0.296875 -0.28125 0.71875 -0.28125q0.40625 0 0.6875 0.28125q0.296875 0.28125 0.296875 0.71875q0 0.4375 -0.296875 0.734375q-0.28125 0.296875 -0.6875 0.296875zm7.064499 0.015625q-1.40625 0 -2.671875 -0.453125q-1.265625 -0.453125 -2.015625 -1.21875l0.65625 -1.0625q0.609375 0.640625 1.6875 1.078125q1.078125 0.421875 2.328125 0.421875q1.65625 0 2.515625 -0.734375q0.875 -0.734375 0.875 -1.921875q0 -0.84375 -0.40625 -1.453125q-0.390625 -0.609375 -1.34375 -0.9375q-0.953125 -0.34375 -2.609375 -0.34375l-2.78125 0l0.671875 -6.5468597l7.140625 0l0 1.203125l-6.609375 0l0.703125 -0.65625l-0.578125 5.4843597l-0.703125 -0.671875l2.453125 0q1.96875 0 3.15625 0.484375q1.203125 0.484375 1.734375 1.359375q0.53125 0.859375 0.53125 2.015625q0 1.09375 -0.53125 2.0q-0.515625 0.90625 -1.5625 1.4375q-1.03125 0.515625 -2.640625 0.515625z" fill-rule="nonzero"/><path fill="#000000" fill-opacity="0.0" d="m233.7454 347.02362l46.45668 0l0 42.015747l-46.45668 0z" fill-rule="evenodd"/><path fill="#000000" d="m248.91728 374.053q-1.5 0 -2.6875 -0.78125q-1.171875 -0.796875 -1.84375 -2.28125q-0.671875 -1.484375 -0.671875 -3.578125q0 -2.09375 0.671875 -3.5625q0.671875 -1.484375 1.84375 -2.28125q1.1875 -0.796875 2.6875 -0.796875q1.515625 0 2.6875 0.796875q1.171875 0.796875 1.859375 2.28125q0.6875 1.46875 0.6875 3.5625q0 2.09375 -0.6875 3.578125q-0.6875 1.484375 -1.859375 2.28125q-1.171875 0.78125 -2.6875 0.78125zm0 -1.234375q1.15625 0 2.015625 -0.625q0.859375 -0.625 1.34375 -1.828125q0.484375 -1.203125 0.484375 -2.953125q0 -1.75 -0.484375 -2.953125q-0.484375 -1.203125 -1.34375 -1.828125q-0.859375 -0.625 -2.015625 -0.625q-1.109375 0 -2.0 0.625q-0.875 0.625 -1.359375 1.828125q-0.484375 1.203125 -0.484375 2.953125q0 1.75 0.484375 2.953125q0.484375 1.203125 1.359375 1.828125q0.890625 0.625 2.0 0.625z" fill-rule="nonzero"/><path fill="#000000" fill-opacity="0.0" d="m241.7454 75.02362l46.45668 0l0 42.015747l-46.45668 0z" fill-rule="evenodd"/><path fill="#000000" d="m253.9954 101.94362l0 -12.5l0.59375 0.640625l-3.671875 0l0 -1.203125l4.421875 0l0 13.0625l-1.34375 0z" fill-rule="nonzero"/><path fill="#000000" fill-opacity="0.0" d="m403.30447 375.7953l85.07086 0l0 42.015747l-85.07086 0z" fill-rule="evenodd"/><path fill="#000000" d="m414.42947 402.71527l0 -13.0625l1.140625 0l5.96875 10.1875l-0.59375 0l5.90625 -10.1875l1.140625 0l0 13.0625l-1.328125 0l0 -10.984375l0.328125 0l-5.453125 9.328125l-0.65625 0l-5.484375 -9.328125l0.359375 0l0 10.984375l-1.328125 0zm23.676086 0l0 -2.171875l-0.0625 -0.34375l0 -3.625q0 -1.25 -0.703125 -1.921875q-0.6875 -0.671875 -2.0625 -0.671875q-0.953125 0 -1.8125 0.328125q-0.859375 0.3125 -1.453125 0.828125l-0.609375 -0.984375q0.75 -0.640625 1.796875 -0.984375q1.046875 -0.34375 2.203125 -0.34375q1.90625 0 2.9375 0.953125q1.03125 0.9375 1.03125 2.859375l0 6.078125l-1.265625 0zm-3.375 0.09375q-1.109375 0 -1.921875 -0.359375q-0.796875 -0.375 -1.234375 -1.015625q-0.421875 -0.640625 -0.421875 -1.484375q0 -0.765625 0.359375 -1.390625q0.359375 -0.625 1.1875 -1.0q0.84375 -0.390625 2.234375 -0.390625l3.375 0l0 1.0l-3.34375 0q-1.40625 0 -1.96875 0.5q-0.546875 0.5 -0.546875 1.25q0 0.84375 0.65625 1.34375q0.65625 0.5 1.828125 0.5q1.125 0 1.9375 -0.515625q0.8125 -0.515625 1.171875 -1.484375l0.3125 0.921875q-0.375 0.96875 -1.3125 1.546875q-0.921875 0.578125 -2.3125 0.578125zm8.241577 -0.09375l0 -9.796875l1.265625 0l0 2.671875l-0.125 -0.46875q0.40625 -1.125 1.375 -1.703125q0.96875 -0.59375 2.40625 -0.59375l0 1.296875q-0.0625 0 -0.140625 -0.015625q-0.078125 -0.015625 -0.15625 -0.015625q-1.546875 0 -2.421875 0.953125q-0.875 0.9375 -0.875 2.671875l0 5.0l-1.328125 0zm8.378693 -2.53125l0.03125 -1.703125l6.109375 -5.5625l1.625 0l-4.3125 4.125l-0.75 0.640625l-2.703125 2.5zm-1.046875 2.53125l0 -13.84375l1.328125 0l0 13.84375l-1.328125 0zm7.59375 0l-4.078125 -5.09375l0.859375 -1.03125l4.84375 6.125l-1.625 0zm5.960602 0.09375q-1.21875 0 -2.3125 -0.34375q-1.078125 -0.34375 -1.6875 -0.875l0.59375 -1.046875q0.59375 0.453125 1.53125 0.78125q0.9375 0.328125 1.96875 0.328125q1.390625 0 2.0 -0.4375q0.625 -0.4375 0.625 -1.171875q0 -0.53125 -0.34375 -0.84375q-0.34375 -0.3125 -0.90625 -0.46875q-0.5625 -0.15625 -1.25 -0.265625q-0.6875 -0.109375 -1.375 -0.265625q-0.671875 -0.15625 -1.234375 -0.4375q-0.5625 -0.296875 -0.90625 -0.796875q-0.34375 -0.5 -0.34375 -1.34375q0 -0.796875 0.4375 -1.421875q0.453125 -0.640625 1.3125 -1.0q0.875 -0.375 2.125 -0.375q0.953125 0 1.90625 0.25q0.953125 0.25 1.5625 0.671875l-0.578125 1.0625q-0.65625 -0.453125 -1.40625 -0.640625q-0.734375 -0.203125 -1.484375 -0.203125q-1.328125 0 -1.953125 0.46875q-0.625 0.453125 -0.625 1.15625q0 0.5625 0.34375 0.875q0.34375 0.3125 0.90625 0.5q0.578125 0.171875 1.25 0.28125q0.6875 0.109375 1.375 0.28125q0.6875 0.15625 1.25 0.421875q0.5625 0.265625 0.90625 0.765625q0.359375 0.5 0.359375 1.296875q0 0.859375 -0.484375 1.484375q-0.46875 0.625 -1.375 0.96875q-0.90625 0.34375 -2.1875 0.34375z" fill-rule="nonzero"/><path fill="#000000" fill-opacity="0.0" d="m480.0 396.80316l34.834656 0" fill-rule="evenodd"/><path stroke="#595959" stroke-width="2.0" stroke-linejoin="round" stroke-linecap="butt" d="m480.0 396.80316l22.834656 0" fill-rule="evenodd"/><path fill="#595959" stroke="#595959" stroke-width="2.0" stroke-linecap="butt" d="m502.83466 400.10663l9.076172 -3.3034668l-9.076172 -3.3034668z" fill-rule="evenodd"/><path fill="#000000" fill-opacity="0.0" d="m225.9029 145.6378l62.141724 0l0 42.015747l-62.141724 0z" fill-rule="evenodd"/><path fill="#000000" d="m237.0279 172.5578l0 -13.0625l4.890625 0q1.65625 0 2.84375 0.53125q1.203125 0.53125 1.84375 1.53125q0.640625 1.0 0.640625 2.421875q0 1.375 -0.640625 2.375q-0.640625 1.0 -1.84375 1.546875q-1.1875 0.53125 -2.84375 0.53125l-4.125 0l0.609375 -0.65625l0 4.78125l-1.375 0zm1.375 -4.671875l-0.609375 -0.65625l4.09375 0q1.953125 0 2.96875 -0.84375q1.015625 -0.859375 1.015625 -2.40625q0 -1.578125 -1.015625 -2.421875q-1.015625 -0.859375 -2.96875 -0.859375l-4.09375 0l0.609375 -0.65625l0 7.84375zm14.004562 8.296875q-1.03125 -1.703125 -1.609375 -3.921875q-0.5625 -2.234375 -0.5625 -4.8125q0 -2.578125 0.5625 -4.828125q0.578125 -2.25 1.609375 -3.90625l1.265625 0q-1.109375 1.921875 -1.625 4.078125q-0.5 2.15625 -0.5 4.65625q0 2.5 0.5 4.65625q0.515625 2.15625 1.625 4.078125l-1.265625 0zm2.809784 -3.625l0 -0.875l6.5312347 -8.265625l0.28125 0.453125l-6.7031097 0l0 -1.109375l7.7499847 0l0 0.859375l-6.515625 8.28125l-0.328125 -0.4375l6.96875 0l0 1.09375l-7.9843597 0zm10.767715 3.625l-1.265625 0q1.109375 -1.921875 1.625 -4.078125q0.515625 -2.15625 0.515625 -4.65625q0 -2.5 -0.515625 -4.65625q-0.515625 -2.15625 -1.625 -4.078125l1.265625 0q1.0625 1.65625 1.625 3.90625q0.5625 2.25 0.5625 4.828125q0 2.578125 -0.5625 4.8125q-0.5625 2.21875 -1.625 3.921875z" fill-rule="nonzero"/><path fill="#000000" fill-opacity="0.0" d="m284.56168 224.34514l188.12598 0l0 36.56694l-188.12598 0z" fill-rule="evenodd"/><path fill="#000000" d="m298.23355 251.26514l0 -11.859375l-4.59375 0l0 -1.203125l10.5625 0l0 1.203125l-4.59375 0l0 11.859375l-1.375 0zm12.880585 -9.890625q1.203125 0 2.09375 0.46875q0.90625 0.453125 1.421875 1.390625q0.515625 0.921875 0.515625 2.34375l0 5.6875l-1.328125 0l0 -5.5625q0 -1.546875 -0.78125 -2.328125q-0.765625 -0.796875 -2.15625 -0.796875q-1.046875 0 -1.828125 0.421875q-0.765625 0.40625 -1.1875 1.203125q-0.421875 0.796875 -0.421875 1.90625l0 5.15625l-1.328125 0l0 -13.84375l1.328125 0l0 6.734375l-0.265625 -0.5q0.46875 -1.0625 1.484375 -1.671875q1.03125 -0.609375 2.453125 -0.609375zm7.6116333 9.890625l0 -9.796875l1.265625 0l0 2.671875l-0.125 -0.46875q0.40625 -1.125 1.375 -1.703125q0.96875 -0.59375 2.40625 -0.59375l0 1.296875q-0.0625 0 -0.140625 -0.015625q-0.078125 -0.015625 -0.15625 -0.015625q-1.546875 0 -2.421875 0.953125q-0.875 0.9375 -0.875 2.671875l0 5.0l-1.328125 0zm11.394714 0.09375q-1.515625 0 -2.671875 -0.640625q-1.15625 -0.640625 -1.8125 -1.765625q-0.65625 -1.140625 -0.65625 -2.59375q0 -1.453125 0.625 -2.5625q0.625 -1.125 1.71875 -1.765625q1.09375 -0.65625 2.453125 -0.65625q1.375 0 2.4375 0.625q1.078125 0.625 1.6875 1.765625q0.625 1.125 0.625 2.59375q0 0.09375 -0.015625 0.203125q0 0.09375 0 0.203125l-8.53125 0l0 -0.984375l7.828125 0l-0.53125 0.390625q0 -1.0625 -0.453125 -1.890625q-0.453125 -0.828125 -1.25 -1.296875q-0.78125 -0.46875 -1.796875 -0.46875q-1.015625 0 -1.8125 0.46875q-0.796875 0.46875 -1.25 1.3125q-0.453125 0.828125 -0.453125 1.90625l0 0.21875q0 1.109375 0.5 1.96875q0.5 0.84375 1.375 1.328125q0.890625 0.46875 2.03125 0.46875q0.890625 0 1.65625 -0.3125q0.78125 -0.328125 1.34375 -0.984375l0.75 0.859375q-0.65625 0.78125 -1.640625 1.203125q-0.96875 0.40625 -2.15625 0.40625zm9.752747 0q-1.21875 0 -2.3125 -0.34375q-1.078125 -0.34375 -1.6875 -0.875l0.59375 -1.046875q0.59375 0.453125 1.53125 0.78125q0.9375 0.328125 1.96875 0.328125q1.390625 0 2.0 -0.4375q0.625 -0.4375 0.625 -1.171875q0 -0.53125 -0.34375 -0.84375q-0.34375 -0.3125 -0.90625 -0.46875q-0.5625 -0.15625 -1.25 -0.265625q-0.6875 -0.109375 -1.375 -0.265625q-0.671875 -0.15625 -1.234375 -0.4375q-0.5625 -0.296875 -0.90625 -0.796875q-0.34375 -0.5 -0.34375 -1.34375q0 -0.796875 0.4375 -1.421875q0.453125 -0.640625 1.3125 -1.0q0.875 -0.375 2.125 -0.375q0.953125 0 1.90625 0.25q0.953125 0.25 1.5625 0.671875l-0.578125 1.0625q-0.65625 -0.453125 -1.40625 -0.640625q-0.734375 -0.203125 -1.484375 -0.203125q-1.328125 0 -1.953125 0.46875q-0.625 0.453125 -0.625 1.15625q0 0.5625 0.34375 0.875q0.34375 0.3125 0.90625 0.5q0.578125 0.171875 1.25 0.28125q0.6875 0.109375 1.375 0.28125q0.6875 0.15625 1.25 0.421875q0.5625 0.265625 0.90625 0.765625q0.359375 0.5 0.359375 1.296875q0 0.859375 -0.484375 1.484375q-0.46875 0.625 -1.375 0.96875q-0.90625 0.34375 -2.1875 0.34375zm11.463623 -9.984375q1.203125 0 2.09375 0.46875q0.90625 0.453125 1.421875 1.390625q0.515625 0.921875 0.515625 2.34375l0 5.6875l-1.328125 0l0 -5.5625q0 -1.546875 -0.78125 -2.328125q-0.765625 -0.796875 -2.15625 -0.796875q-1.046875 0 -1.828125 0.421875q-0.765625 0.40625 -1.1875 1.203125q-0.421875 0.796875 -0.421875 1.90625l0 5.15625l-1.328125 0l0 -13.84375l1.328125 0l0 6.734375l-0.265625 -0.5q0.46875 -1.0625 1.484375 -1.671875q1.03125 -0.609375 2.453125 -0.609375zm11.611633 9.984375q-1.421875 0 -2.546875 -0.640625q-1.125 -0.640625 -1.78125 -1.765625q-0.65625 -1.140625 -0.65625 -2.59375q0 -1.46875 0.65625 -2.59375q0.65625 -1.125 1.765625 -1.75q1.125 -0.640625 2.5625 -0.640625q1.453125 0 2.578125 0.640625q1.125 0.625 1.765625 1.75q0.65625 1.125 0.65625 2.59375q0 1.453125 -0.65625 2.59375q-0.640625 1.125 -1.78125 1.765625q-1.125 0.640625 -2.5625 0.640625zm0 -1.171875q1.0625 0 1.875 -0.46875q0.828125 -0.484375 1.296875 -1.34375q0.484375 -0.875 0.484375 -2.015625q0 -1.15625 -0.484375 -2.015625q-0.46875 -0.859375 -1.296875 -1.328125q-0.8125 -0.484375 -1.859375 -0.484375q-1.046875 0 -1.875 0.484375q-0.8125 0.46875 -1.296875 1.328125q-0.484375 0.859375 -0.484375 2.015625q0 1.140625 0.484375 2.015625q0.484375 0.859375 1.296875 1.34375q0.828125 0.46875 1.859375 0.46875zm7.6974792 1.078125l0 -13.84375l1.328125 0l0 13.84375l-1.328125 0zm8.924774 0.09375q-1.40625 0 -2.515625 -0.625q-1.109375 -0.640625 -1.75 -1.765625q-0.625 -1.140625 -0.625 -2.609375q0 -1.5 0.625 -2.609375q0.640625 -1.125 1.75 -1.75q1.109375 -0.625 2.515625 -0.625q1.28125 0 2.296875 0.578125q1.015625 0.578125 1.625 1.6875q0.609375 1.109375 0.609375 2.71875q0 1.578125 -0.609375 2.703125q-0.59375 1.125 -1.609375 1.71875q-1.015625 0.578125 -2.3125 0.578125zm0.09375 -1.171875q1.046875 0 1.875 -0.46875q0.828125 -0.484375 1.296875 -1.34375q0.484375 -0.875 0.484375 -2.015625q0 -1.15625 -0.484375 -2.015625q-0.46875 -0.859375 -1.296875 -1.328125q-0.828125 -0.484375 -1.875 -0.484375q-1.03125 0 -1.859375 0.484375q-0.8125 0.46875 -1.296875 1.328125q-0.484375 0.859375 -0.484375 2.015625q0 1.140625 0.484375 2.015625q0.484375 0.859375 1.296875 1.34375q0.828125 0.46875 1.859375 0.46875zm3.6875 1.078125l0 -2.953125l0.125 -1.96875l-0.171875 -1.984375l0 -6.9375l1.3125 0l0 13.84375l-1.265625 0zm9.849396 0l0 -13.84375l1.328125 0l0 13.84375l-1.328125 0zm5.018524 0l0 -9.796875l1.328125 0l0 9.796875l-1.328125 0zm0.671875 -11.953125q-0.40625 0 -0.6875 -0.28125q-0.28125 -0.28125 -0.28125 -0.671875q0 -0.390625 0.28125 -0.65625q0.28125 -0.28125 0.6875 -0.28125q0.40625 0 0.6875 0.265625q0.28125 0.25 0.28125 0.65625q0 0.40625 -0.265625 0.6875q-0.265625 0.28125 -0.703125 0.28125zm9.34668 2.0625q1.203125 0 2.09375 0.46875q0.90625 0.453125 1.421875 1.390625q0.515625 0.921875 0.515625 2.34375l0 5.6875l-1.328125 0l0 -5.5625q0 -1.546875 -0.78125 -2.328125q-0.765625 -0.796875 -2.15625 -0.796875q-1.046875 0 -1.828125 0.421875q-0.765625 0.40625 -1.1875 1.203125q-0.421875 0.796875 -0.421875 1.90625l0 5.15625l-1.328125 0l0 -9.796875l1.265625 0l0 2.6875l-0.203125 -0.5q0.46875 -1.0625 1.484375 -1.671875q1.03125 -0.609375 2.453125 -0.609375zm11.767883 9.984375q-1.515625 0 -2.671875 -0.640625q-1.15625 -0.640625 -1.8125 -1.765625q-0.65625 -1.140625 -0.65625 -2.59375q0 -1.453125 0.625 -2.5625q0.625 -1.125 1.71875 -1.765625q1.09375 -0.65625 2.453125 -0.65625q1.375 0 2.4375 0.625q1.078125 0.625 1.6875 1.765625q0.625 1.125 0.625 2.59375q0 0.09375 -0.015625 0.203125q0 0.09375 0 0.203125l-8.53125 0l0 -0.984375l7.828125 0l-0.53125 0.390625q0 -1.0625 -0.453125 -1.890625q-0.453125 -0.828125 -1.25 -1.296875q-0.78125 -0.46875 -1.796875 -0.46875q-1.015625 0 -1.8125 0.46875q-0.796875 0.46875 -1.25 1.3125q-0.453125 0.828125 -0.453125 1.90625l0 0.21875q0 1.109375 0.5 1.96875q0.5 0.84375 1.375 1.328125q0.890625 0.46875 2.03125 0.46875q0.890625 0 1.65625 -0.3125q0.78125 -0.328125 1.34375 -0.984375l0.75 0.859375q-0.65625 0.78125 -1.640625 1.203125q-0.96875 0.40625 -2.15625 0.40625z" fill-rule="nonzero"/></g></svg>